<svg width="24" height="24" viewBox="0 0 24 24" fill="none" xmlns="http://www.w3.org/2000/svg">
  <ellipse cx="13.5" cy="9.5" rx="7.5" ry="7.5" stroke="#0085CA" stroke-width="1.5"/>
  <path d="M10 14L6 18C5.46957 18.5304 5.20435 18.7956 4.91891 18.9101C4.36995 19.1387 3.74408 19.0526 3.27792 18.6821C3.03019 18.4867 2.82843 18.1536 2.42491 17.4875C2.02139 16.8213 1.81963 16.4883 1.7124 16.1625C1.48845 15.4815 1.60533 14.7309 2.02735 14.1524C2.22333 13.8789 2.53226 13.6497 3.15012 13.1913L7 10" stroke="#0085CA" stroke-width="1.5" stroke-linecap="round" stroke-linejoin="round"/>
  <circle cx="11.5" cy="7.5" r="0.8" fill="#0085CA"/>
  <circle cx="13.5" cy="9.5" r="0.8" fill="#0085CA"/>
  <circle cx="15.5" cy="7.5" r="0.8" fill="#0085CA"/>
  <circle cx="15.5" cy="11.5" r="0.8" fill="#0085CA"/>
  <circle cx="11.5" cy="11.5" r="0.8" fill="#0085CA"/>
</svg>
