<svg width="24" height="24" viewBox="0 0 24 24" fill="none" xmlns="http://www.w3.org/2000/svg">
  <path fill-rule="evenodd" clip-rule="evenodd" d="M14 3C14 2.44772 13.5523 2 13 2H11C10.4477 2 10 2.44772 10 3V3.26756C9.38346 3.46733 8.80016 3.74503 8.26102 4.08836L8.07107 3.89841C7.68054 3.50789 7.04738 3.50789 6.65685 3.89841L5.24264 5.31263C4.85211 5.70315 4.85211 6.33632 5.24264 6.72684L5.43259 6.91679C5.08926 7.45593 4.81156 8.03923 4.61179 8.65577H4.34423C3.79194 8.65577 3.34423 9.10348 3.34423 9.65577V11.6558C3.34423 12.208 3.79194 12.6558 4.34423 12.6558H4.61179C4.81156 13.2723 5.08926 13.8556 5.43259 14.3948L5.24264 14.5847C4.85211 14.9753 4.85211 15.6084 5.24264 15.999L6.65685 17.4132C7.04738 17.8037 7.68054 17.8037 8.07107 17.4132L8.26102 17.2232C8.80016 17.5666 9.38346 17.8443 10 18.044V18.3115C10 18.8638 10.4477 19.3115 11 19.3115H13C13.5523 19.3115 14 18.8638 14 18.3115V18.044C14.6165 17.8443 15.1998 17.5666 15.739 17.2232L15.9289 17.4132C16.3195 17.8037 16.9526 17.8037 17.3431 17.4132L18.7574 15.999C19.1479 15.6084 19.1479 14.9753 18.7574 14.5847L18.5674 14.3948C18.9107 13.8556 19.1884 13.2723 19.3882 12.6558H19.6558C20.208 12.6558 20.6558 12.208 20.6558 11.6558V9.65577C20.6558 9.10348 20.208 8.65577 19.6558 8.65577H19.3882C19.1884 8.03923 18.9107 7.45593 18.5674 6.91679L18.7574 6.72684C19.1479 6.33632 19.1479 5.70315 18.7574 5.31263L17.3431 3.89841C16.9526 3.50789 16.3195 3.50789 15.9289 3.89841L15.739 4.08836C15.1998 3.74503 14.6165 3.46733 14 3.26756V3ZM12 15C13.6569 15 15 13.6569 15 12C15 10.3431 13.6569 9 12 9C10.3431 9 9 10.3431 9 12C9 13.6569 10.3431 15 12 15Z" fill="#0085CA"/>
</svg>
