<svg width="24" height="24" viewBox="0 0 24 24" fill="none" xmlns="http://www.w3.org/2000/svg">
  <path d="M7 2V6M17 2V6" stroke="#0085CA" stroke-width="1.5" stroke-linecap="round"/>
  <path fill-rule="evenodd" clip-rule="evenodd" d="M3 9.5C3 8.11929 4.11929 7 5.5 7H18.5C19.8807 7 21 8.11929 21 9.5V19C21 20.1046 20.1046 21 19 21H5C3.89543 21 3 20.1046 3 19V9.5ZM7.5 14C8.05228 14 8.5 13.5523 8.5 13C8.5 12.4477 8.05228 12 7.5 12C6.94772 12 6.5 12.4477 6.5 13C6.5 13.5523 6.94772 14 7.5 14ZM12 14C12.5523 14 13 13.5523 13 13C13 12.4477 12.5523 12 12 12C11.4477 12 11 12.4477 11 13C11 13.5523 11.4477 14 12 14ZM17.5 13C17.5 13.5523 17.0523 14 16.5 14C15.9477 14 15.5 13.5523 15.5 13C15.5 12.4477 15.9477 12 16.5 12C17.0523 12 17.5 12.4477 17.5 13ZM7.5 18.5C8.05228 18.5 8.5 18.0523 8.5 17.5C8.5 16.9477 8.05228 16.5 7.5 16.5C6.94772 16.5 6.5 16.9477 6.5 17.5C6.5 18.0523 6.94772 18.5 7.5 18.5ZM13 17.5C13 18.0523 12.5523 18.5 12 18.5C11.4477 18.5 11 18.0523 11 17.5C11 16.9477 11.4477 16.5 12 16.5C12.5523 16.5 13 16.9477 13 17.5Z" fill="#0085CA"/>
</svg>
