<svg width="24" height="24" viewBox="0 0 24 24" fill="none" xmlns="http://www.w3.org/2000/svg">
  <path fill-rule="evenodd" clip-rule="evenodd" d="M12 21C16.9706 21 21 16.9706 21 12C21 7.02944 16.9706 3 12 3C7.02944 3 3 7.02944 3 12C3 16.9706 7.02944 21 12 21ZM13 7C13 6.44772 12.5523 6 12 6C11.4477 6 11 6.44772 11 7V12C11 12.3788 11.214 12.725 11.5528 12.8944L14.5528 14.3944C15.0468 14.6414 15.6474 14.4412 15.8944 13.9472C16.1414 13.4532 15.9412 12.8526 15.4472 12.6056L13 11.382V7Z" fill="#0085CA"/>
</svg>
