<svg width="24" height="24" viewBox="0 0 24 24" fill="none" xmlns="http://www.w3.org/2000/svg">
  <rect x="8" y="2" width="8" height="12" rx="4" fill="#0085CA"/>
  <path d="M5 10C5 10.5523 5.44772 11 6 11C6.55228 11 7 10.5523 7 10H5ZM17 10C17 10.5523 17.4477 11 18 11C18.5523 11 19 10.5523 19 10H17ZM13 18V19C13.5523 19 14 18.5523 14 18H13ZM11 18H10C10 18.5523 10.4477 19 11 19V18ZM7 10C7 14.4183 10.5817 18 15 18V16C11.6863 16 9 13.3137 9 10H7ZM9 18C9 14.4183 12.5817 18 17 18V16C13.6863 16 11 13.3137 11 10H9ZM12 18V22H14V18H12ZM12 23H8V21H12V23ZM12 21H16V23H12V21ZM11 18C11 18.5523 11.4477 19 12 19V17C10.3431 17 9 18.3431 9 20H11ZM13 19C13.5523 19 14 18.5523 14 18H12C12 19.6569 13.3431 21 15 21V19Z" fill="#0085CA"/>
</svg>
